<svg width="167" height="32" fill="none" xmlns="http://www.w3.org/2000/svg">
<g clip-path="url(#clip0)" fill="#00407B"><path d="M111.79 32h-4.58V4.6h-18.2v18.28h13.66v4.58H84.43V.03h27.36V32zM29.62 0h2.28v4.6h20.53V27.5h-2.25V6.89H31.94v20.57h-2.32V0zM27.33 2.32H14.76v25.1h-2.29V2.32H0V.03h27.33v2.29zM77.6 21.69h2.25v5.77H57.04V4.6h22.85v13.73H64v-2.3h13.6V6.9H59.33v18.27H77.6v-3.48zM162.06 20.6h4.58c0 2.34-.1 4.47-.1 6.82H143.7V4.61h22.85v13.7h-13.73v-4.58h9.16V9.18h-13.7v13.7h13.76v-2.29h.03zM116.33 4.6h4.58v18.28h13.7V4.61h4.57v22.85h-22.85V4.6z"/></g><defs><clipPath id="clip0"><path fill="#fff" d="M0 0h166.67v32H0z"/></clipPath></defs></svg>
