<svg xmlns="http://www.w3.org/2000/svg" viewBox="0 0 25.51 27.88"><defs><style>.cls-1{opacity:0.35;}.cls-2{fill:#0b4984;}</style></defs><title>print</title><g id="Слой_2" data-name="Слой 2"><g id="Слой_1-2" data-name="Слой 1"><g class="cls-1"><path class="cls-2" d="M23.25,26.75h-21a1.06,1.06,0,0,1-1.08-1V2.15a1.06,1.06,0,0,1,1.08-1h16V6.36a.58.58,0,0,0,.6.56h5.5V25.73a1.06,1.06,0,0,1-1.08,1M19.42,1.92,23.5,5.8H19.42Zm5.92,4L19.25.17A.59.59,0,0,0,18.83,0H2.26A2.22,2.22,0,0,0,0,2.15V25.73a2.22,2.22,0,0,0,2.26,2.15h21a2.22,2.22,0,0,0,2.26-2.15V6.35a.56.56,0,0,0-.17-.4"/><path class="cls-2" d="M5.44,5.18H10V10.6H5.44Zm5.12,6.55a.57.57,0,0,0,.59-.56V4.61a.57.57,0,0,0-.59-.56H4.85a.57.57,0,0,0-.59.56v6.56a.57.57,0,0,0,.59.56Z"/><path class="cls-2" d="M20.45,10.6H14.72a.58.58,0,0,0-.59.57.57.57,0,0,0,.59.56h5.73a.58.58,0,0,0,.6-.56.59.59,0,0,0-.6-.57"/><path class="cls-2" d="M20.45,14H5.06a.57.57,0,1,0,0,1.13H20.45a.57.57,0,1,0,0-1.13"/><path class="cls-2" d="M20.45,17.36H5.06a.57.57,0,1,0,0,1.13H20.45a.57.57,0,1,0,0-1.13"/><path class="cls-2" d="M20.45,20.74H5.06a.57.57,0,1,0,0,1.13H20.45a.57.57,0,1,0,0-1.13"/></g></g></g></svg>