<svg xmlns="http://www.w3.org/2000/svg" style="display: none;">

    <symbol id="icon-showPass" viewBox="0 0 20 20">
      <path d="M19.84 9.6C16.82 5.89 13.55 4 10.14 4c-1.36 0-2.73.3-4.09.9A16.37 16.37 0 00.14 9.62c-.2.27-.19.64.02.9 3.02 3.71 6.28 5.6 9.7 5.6 1.36 0 2.73-.3 4.09-.9a16.37 16.37 0 005.91-4.73.74.74 0 00-.02-.9zm-3.7 2.58c-1.43 1.13-3.66 2.48-6.28 2.48-2.82 0-5.57-1.55-8.18-4.6.41-.49 1.17-1.3 2.18-2.1 1.42-1.14 3.66-2.49 6.27-2.49 2.82 0 5.57 1.55 8.18 4.6a15.9 15.9 0 01-2.18 2.11zm-5.92 1.33a3.43 3.43 0 11-.45-6.85 3.43 3.43 0 01.45 6.85z"/>
    </symbol>

    <symbol id="icon-hidePass" viewBox="0 0 20 20">
      <path d="M16.74 2.22a.74.74 0 111.04 1.04L3.25 17.78a.73.73 0 11-1.04-1.04l2.3-2.3a18.05 18.05 0 01-4.35-3.98.74.74 0 01-.02-.9c.06-.08 1.55-2.1 4-3.7 3.3-2.14 6.75-2.5 9.99-1.03l2.61-2.61zM7.57 7.56a3.45 3.45 0 014.3-.46L13 5.95c-2.64-1-5.34-.62-8.06 1.15a15.72 15.72 0 00-3.26 2.89 15.46 15.46 0 003.9 3.38l1.51-1.51a3.42 3.42 0 01.47-4.3zm9.15-1.14c1.07.83 2.11 1.87 3.12 3.11.2.26.21.63.02.9v.01a16.9 16.9 0 01-3.34 3.23 12.96 12.96 0 01-3.75 1.94 9.71 9.71 0 01-4.81.25.73.73 0 11.3-1.44c2.43.52 4.9-.13 7.36-1.91a16.1 16.1 0 002.7-2.5 17.55 17.55 0 00-2.5-2.43.74.74 0 01-.13-1.03.74.74 0 011.03-.13z"/>
    </symbol>

    <symbol id="icon-info" viewBox="0 0 120 120">
        <path d="M70.1,86.9H49.9c-1.9,0-3.4-1.5-3.4-3.4c0-1.8,1.5-3.4,3.4-3.4h3.4V60h-3.4c-1.9,0-3.4-1.5-3.4-3.4
	s1.5-3.4,3.4-3.4h13.5c1.9,0,3.4,1.5,3.4,3.4v23.5h3.4c1.9,0,3.4,1.5,3.4,3.4C73.5,85.4,72,86.9,70.1,86.9 M60,33.1
	c3.7,0,6.7,3,6.7,6.7s-3,6.7-6.7,6.7c-3.7,0-6.7-3-6.7-6.7S56.3,33.1,60,33.1 M60,6.2C30.2,6.2,6,30.3,6,60s24.2,53.8,54,53.8
	c29.8,0,54-24.1,54-53.8S89.8,6.2,60,6.2"/>
    </symbol>

    <symbol id="icon-card" viewBox="0 0 120 120">
        <g>
            <path class="st0" d="M35.9,47.6H25.5c-1.9,0-3.4,1.5-3.4,3.4c0,1.9,1.5,3.4,3.4,3.4h10.5c1.9,0,3.4-1.5,3.4-3.4
		C39.3,49.1,37.8,47.6,35.9,47.6z"/>
            <path class="st0" d="M103.6,18.1h-88c-7.4,0-13.4,6-13.4,13.4v63.1c0,7.4,6,13.4,13.4,13.4h88c7.4,0,13.4-6,13.4-13.4V31.4
		C117,24.1,111,18.1,103.6,18.1z M110.3,94.6c0,3.7-3,6.6-6.6,6.6h-88c-3.7,0-6.6-3-6.6-6.6v-5h101.3V94.6z M110.3,82.9H9V70.7
		h101.3V82.9z M110.3,64H9V31.4c0-3.7,3-6.6,6.6-6.6h88c3.7,0,6.6,3,6.6,6.6V64z"/>
        </g>
    </symbol>

    <symbol id="icon-trash" viewBox="0 0 120 120">
        <path class="st0" d="M34.9,103.7C34.9,103.7,34.9,103.7,34.9,103.7c1.6-0.1,2.7-1.3,2.7-2.8l-1.9-56.8c0-1.5-1.3-2.7-2.8-2.6
		c-1.5,0.1-2.6,1.3-2.6,2.8l1.9,56.8C32.2,102.5,33.4,103.7,34.9,103.7z"/>
        <path class="st0" d="M90.4,109.5h-5.7c0.8-1.4,1.3-3,1.3-4.6l2.7-69.1H93c1.5,0,2.7-1.2,2.7-2.7v-7.4c0-4.4-3.6-8-8-8H68.9v-4.2
		c0-4.5-3.7-8.2-8.2-8.2H40c-4.5,0-8.2,3.7-8.2,8.2v4.2H13c-4.4,0-8,3.6-8,8v7.4c0,1.5,1.2,2.7,2.7,2.7h14.7c1.5,0,2.7-1.2,2.7-2.7
		c0-1.5-1.2-2.7-2.7-2.7h-12v-4.7c0-1.5,1.2-2.7,2.7-2.7h74.6c1.5,0,2.7,1.2,2.7,2.7v4.7H32.7c-1.5,0-2.7,1.2-2.7,2.7
		c0,1.5,1.2,2.7,2.7,2.7h50.7l-2.7,68.9c-0.1,2.6-2.4,4.8-5,4.9H26.2c-2.6,0-5-2.2-5.2-4.9l-3.9-64.7c-0.1-1.5-1.3-2.6-2.8-2.5
		c-1.5,0.1-2.6,1.4-2.5,2.8l3.9,64.7c0.1,1.7,0.6,3.2,1.4,4.6h-4.5c-1.5,0-2.7,1.2-2.7,2.7s1.2,2.7,2.7,2.7h13.7h0c0,0,0,0,0,0h49.5
		c0,0,0,0,0,0c0,0,0,0,0,0h14.7c1.5,0,2.7-1.2,2.7-2.7S91.9,109.5,90.4,109.5z M63.6,17.6H37.1v-4.2c0-1.6,1.3-2.9,2.9-2.9h20.8
		c1.6,0,2.9,1.3,2.9,2.9V17.6z"/>
        <path class="st0" d="M103.5,109.5h-6.4c-1.5,0-2.7,1.2-2.7,2.7s1.2,2.7,2.7,2.7h6.4c1.5,0,2.7-1.2,2.7-2.7S105,109.5,103.5,109.5z"
        />
        <path class="st0" d="M112.3,109.5h-2.1c-1.5,0-2.7,1.2-2.7,2.7s1.2,2.7,2.7,2.7h2.1c1.5,0,2.7-1.2,2.7-2.7S113.8,109.5,112.3,109.5
		z"/>
        <path class="st0" d="M53.3,101V44.2c0-1.5-1.2-2.7-2.7-2.7c-1.5,0-2.7,1.2-2.7,2.7V101c0,1.5,1.2,2.7,2.7,2.7
		C52.1,103.7,53.3,102.5,53.3,101z"/>
        <path class="st0" d="M66.4,103.7c1.4,0,2.6-1.1,2.7-2.6l1.9-56.8c0.1-1.5-1.1-2.7-2.6-2.8c-1.4-0.1-2.7,1.1-2.8,2.6l-1.9,56.8
		C63.6,102.4,64.8,103.6,66.4,103.7C66.3,103.7,66.3,103.7,66.4,103.7z"/>
    </symbol>

</svg>
