<svg xmlns="http://www.w3.org/2000/svg" viewBox="0 0 28.62 27.88"><defs><style>.cls-1{opacity:0.35;}.cls-2{fill:#0b4984;}</style></defs><title>time</title><g id="Слой_2" data-name="Слой 2"><g id="Слой_1-2" data-name="Слой 1"><g class="cls-1"><path class="cls-2" d="M6.27,5.35l-.43.41a11.39,11.39,0,0,0-3.45,8.18A11.79,11.79,0,0,0,14.31,25.56a.58.58,0,1,0,0-1.16A10.61,10.61,0,0,1,3.58,13.94,10.23,10.23,0,0,1,6.28,7l1,1L8.35,7V2.52H3.79l-1.06,1,1,1A13.64,13.64,0,0,0,0,13.94,14.14,14.14,0,0,0,14.31,27.88a.58.58,0,1,0,0-1.16A13,13,0,0,1,1.19,13.94,12.55,12.55,0,0,1,5,4.94l.42-.41-.87-.85H7.16V6.21Z"/><path class="cls-2" d="M28.62,13.94A14.14,14.14,0,0,0,14.31,0a.59.59,0,0,0-.6.58.59.59,0,0,0,.6.58A13,13,0,0,1,27.43,13.94a12.55,12.55,0,0,1-3.81,9l-.42.42.87.84h-2.6V21.67l.88.86.43-.41a11.4,11.4,0,0,0,3.46-8.18A11.79,11.79,0,0,0,14.31,2.32a.59.59,0,1,0,0,1.17A10.6,10.6,0,0,1,25,13.94a10.23,10.23,0,0,1-2.7,6.94l-1-1-1.06,1v4.43h4.56l1.06-1-1-1a13.64,13.64,0,0,0,3.75-9.4"/><path class="cls-2" d="M12.52,3.49a.59.59,0,1,0,0-1.17.59.59,0,1,0,0,1.17"/><path class="cls-2" d="M12.52,1.16a.59.59,0,0,0,.6-.58.59.59,0,0,0-.6-.58.58.58,0,1,0,0,1.16"/><path class="cls-2" d="M16.1,26.72a.58.58,0,1,0,.6.58.59.59,0,0,0-.6-.58"/><path class="cls-2" d="M16.1,24.4a.58.58,0,1,0,.6.58.59.59,0,0,0-.6-.58"/><path class="cls-2" d="M16,14.52h4.28a.58.58,0,1,0,0-1.16H16a1.8,1.8,0,0,0-1.08-1.06V5.81a.6.6,0,0,0-1.2,0V12.3a1.8,1.8,0,0,0-1.08,1.06h-1.3a.58.58,0,1,0,0,1.16h1.3a1.8,1.8,0,0,0,1.08,1.06v1.26a.6.6,0,0,0,1.2,0V15.58A1.8,1.8,0,0,0,16,14.52"/></g></g></g></svg>